<svg width="158" height="173" viewBox="0 0 158 173" fill="none" xmlns="http://www.w3.org/2000/svg">
<path d="M19.5172 117.007C33.5384 108.879 55.7987 95.9468 69.82 87.8186" stroke="white" stroke-opacity="0.1" stroke-width="10" stroke-linecap="round" stroke-linejoin="round"/>
<g filter="url(#filter0_d)">
<path d="M68.9209 58.1152C71.154 58.1152 72.9541 58.571 74.3213 59.4824C75.6885 60.3939 76.748 61.932 77.5 64.0967L92.0947 102.002C92.5504 103.164 93.029 103.973 93.5303 104.429C94.0544 104.862 94.7152 105.078 95.5127 105.078L96.8115 104.976L97.0166 110.171C96.1963 110.444 95.3076 110.581 94.3506 110.581C92.596 110.581 91.2744 110.376 90.3857 109.966C89.4971 109.533 88.6995 108.827 87.9932 107.847C87.2868 106.867 86.6032 105.466 85.9424 103.643L78.081 83.374L68.3057 110H61.2646L74.7314 74.8291L71.4502 66.7969C70.9261 65.5208 70.3564 64.6208 69.7412 64.0967C69.1488 63.5726 68.3398 63.3106 67.3144 63.3106L65.708 63.3789L65.6738 58.5254C66.6309 58.252 67.7132 58.1152 68.9209 58.1152Z" fill="#FF6DD6"/>
<path d="M77.5 64.0967L76.5554 64.4248L76.5608 64.4405L76.5668 64.456L77.5 64.0967ZM92.0947 102.002L91.1615 102.361L91.1637 102.367L92.0947 102.002ZM93.5303 104.429L92.8576 105.169L92.8751 105.185L92.8934 105.2L93.5303 104.429ZM95.5127 105.078V106.078H95.5521L95.5914 106.075L95.5127 105.078ZM96.8115 104.976L97.8107 104.936L97.7697 103.897L96.7328 103.979L96.8115 104.976ZM97.0166 110.171L97.3328 111.12L98.0454 110.882L98.0158 110.131L97.0166 110.171ZM90.3857 109.966L89.9478 110.865L89.9572 110.869L89.9667 110.874L90.3857 109.966ZM85.9424 103.643L86.8825 103.302L86.8787 103.291L86.8747 103.281L85.9424 103.643ZM78.081 83.374L79.0134 83.0124L78.0554 80.5424L77.1423 83.0294L78.081 83.374ZM68.3057 110V111H69.0038L69.2444 110.345L68.3057 110ZM61.2646 110L60.3308 109.642L59.8109 111H61.2646V110ZM74.7314 74.8291L75.6653 75.1867L75.8068 74.8172L75.6572 74.4509L74.7314 74.8291ZM71.4502 66.7969L72.3759 66.4187L72.3752 66.417L71.4502 66.7969ZM69.7412 64.0967L69.0786 64.8457L69.0856 64.8519L69.0927 64.8579L69.7412 64.0967ZM67.3144 63.3106V62.3106H67.2932L67.2719 62.3115L67.3144 63.3106ZM65.708 63.3789L64.708 63.386L64.7153 64.4221L65.7505 64.378L65.708 63.3789ZM65.6738 58.5254L65.3991 57.5639L64.6685 57.7726L64.6738 58.5324L65.6738 58.5254ZM68.9209 59.1152C71.0255 59.1152 72.613 59.5454 73.7666 60.3145L74.876 58.6504C73.2952 57.5965 71.2824 57.1152 68.9209 57.1152V59.1152ZM73.7666 60.3145C74.8929 61.0654 75.8473 62.3866 76.5554 64.4248L78.4446 63.7686C77.6487 61.4774 76.484 59.7224 74.876 58.6504L73.7666 60.3145ZM76.5668 64.456L91.1615 102.361L93.0279 101.643L78.4332 63.7374L76.5668 64.456ZM91.1637 102.367C91.6359 103.571 92.1829 104.555 92.8576 105.169L94.2029 103.689C93.8751 103.391 93.465 102.757 93.0257 101.637L91.1637 102.367ZM92.8934 105.2C93.6267 105.805 94.5249 106.078 95.5127 106.078V104.078C94.9054 104.078 94.482 103.918 94.1671 103.658L92.8934 105.2ZM95.5914 106.075L96.8902 105.972L96.7328 103.979L95.434 104.081L95.5914 106.075ZM95.8123 105.015L96.0174 110.21L98.0158 110.131L97.8107 104.936L95.8123 105.015ZM96.7004 109.222C95.9923 109.458 95.2115 109.581 94.3506 109.581V111.581C95.4037 111.581 96.4003 111.43 97.3328 111.12L96.7004 109.222ZM94.3506 109.581C92.6437 109.581 91.4959 109.377 90.8048 109.058L89.9667 110.874C91.0529 111.375 92.5483 111.581 94.3506 111.581V109.581ZM90.8237 109.067C90.113 108.721 89.4354 108.137 88.8043 107.262L87.182 108.431C87.9637 109.516 88.8812 110.345 89.9478 110.865L90.8237 109.067ZM88.8043 107.262C88.1745 106.388 87.5284 105.083 86.8825 103.302L85.0022 103.983C85.678 105.848 86.399 107.345 87.182 108.431L88.8043 107.262ZM86.8747 103.281L79.0134 83.0124L77.1487 83.7356L85.01 104.004L86.8747 103.281ZM77.1423 83.0294L67.3669 109.655L69.2444 110.345L79.0198 83.7187L77.1423 83.0294ZM68.3057 109H61.2646V111H68.3057V109ZM62.1985 110.358L75.6653 75.1867L73.7976 74.4715L60.3308 109.642L62.1985 110.358ZM75.6572 74.4509L72.3759 66.4187L70.5245 67.1751L73.8057 75.2073L75.6572 74.4509ZM72.3752 66.417C71.8278 65.0842 71.1835 64.0117 70.3897 63.3354L69.0927 64.8579C69.5294 65.2299 70.0244 65.9575 70.5252 67.1768L72.3752 66.417ZM70.4038 63.3477C69.5797 62.6187 68.5098 62.3106 67.3144 62.3106V64.3106C68.1699 64.3106 68.7178 64.5265 69.0786 64.8457L70.4038 63.3477ZM67.2719 62.3115L65.6655 62.3798L65.7505 64.378L67.357 64.3097L67.2719 62.3115ZM66.708 63.3719L66.6738 58.5184L64.6738 58.5324L64.708 63.386L66.708 63.3719ZM65.9485 59.4869C66.7996 59.2438 67.7871 59.1152 68.9209 59.1152V57.1152C67.6393 57.1152 66.4621 57.2602 65.3991 57.5639L65.9485 59.4869Z" fill="#FF6DD6"/>
</g>
<g filter="url(#filter1_d)">
<path d="M138.878 115.747L78.9376 149.401V82.7848C98.9176 71.1847 118.897 59.5844 138.878 47.9844L78.9376 15L19 47.9844L19 117.111" stroke="white" stroke-width="10" stroke-linecap="round" stroke-linejoin="round"/>
</g>
<defs>
<filter id="filter0_d" x="45.8109" y="47.1152" width="66.2345" height="82.4658" filterUnits="userSpaceOnUse" color-interpolation-filters="sRGB">
<feFlood flood-opacity="0" result="BackgroundImageFix"/>
<feColorMatrix in="SourceAlpha" type="matrix" values="0 0 0 0 0 0 0 0 0 0 0 0 0 0 0 0 0 0 127 0"/>
<feOffset dy="4"/>
<feGaussianBlur stdDeviation="7"/>
<feColorMatrix type="matrix" values="0 0 0 0 1 0 0 0 0 0.427451 0 0 0 0 0.564706 0 0 0 0.5 0"/>
<feBlend mode="normal" in2="BackgroundImageFix" result="effect1_dropShadow"/>
<feBlend mode="normal" in="SourceGraphic" in2="effect1_dropShadow" result="shape"/>
</filter>
<filter id="filter1_d" x="0" y="0" width="157.878" height="172.401" filterUnits="userSpaceOnUse" color-interpolation-filters="sRGB">
<feFlood flood-opacity="0" result="BackgroundImageFix"/>
<feColorMatrix in="SourceAlpha" type="matrix" values="0 0 0 0 0 0 0 0 0 0 0 0 0 0 0 0 0 0 127 0"/>
<feOffset dy="4"/>
<feGaussianBlur stdDeviation="7"/>
<feColorMatrix type="matrix" values="0 0 0 0 1 0 0 0 0 1 0 0 0 0 1 0 0 0 0.2 0"/>
<feBlend mode="normal" in2="BackgroundImageFix" result="effect1_dropShadow"/>
<feBlend mode="normal" in="SourceGraphic" in2="effect1_dropShadow" result="shape"/>
</filter>
</defs>
</svg>
